HIERARCHY
ROOT Hips
{
	OFFSET 0.000000 0.000000 0.000000
	CHANNELS 6 Xposition Yposition Zposition Zrotation Yrotation Xrotation 
	JOINT LHipJoint
	{
		OFFSET 0.000000 0.000000 0.000000
		CHANNELS 3 Zrotation Yrotation Xrotation
		JOINT LeftUpLeg
		{
			OFFSET 1.363060 -1.794630 0.839290
			CHANNELS 3 Zrotation Yrotation Xrotation
			JOINT LeftLeg
			{
				OFFSET 2.448110 -6.726130 0.000000
				CHANNELS 3 Zrotation Yrotation Xrotation
				JOINT LeftFoot
				{
					OFFSET 2.562200 -7.039590 0.000000
					CHANNELS 3 Zrotation Yrotation Xrotation
					JOINT LeftToeBase
					{
						OFFSET 0.157640 -0.433110 2.322550
						CHANNELS 3 Zrotation Yrotation Xrotation
						End Site
						{
							OFFSET 0.000000 0.000000 0.000000
						}
					}
				}
			}
		}
	}
	JOINT RHipJoint
	{
		OFFSET 0.000000 0.000000 0.000000
		CHANNELS 3 Zrotation Yrotation Xrotation
		JOINT RightUpLeg
		{
			OFFSET -1.305520 -1.794630 0.839290
			CHANNELS 3 Zrotation Yrotation Xrotation
			JOINT RightLeg
			{
				OFFSET -2.542530 -6.985550 0.000000
				CHANNELS 3 Zrotation Yrotation Xrotation
				JOINT RightFoot
				{
					OFFSET -2.568260 -7.056230 0.000000
					CHANNELS 3 Zrotation Yrotation Xrotation
					JOINT RightToeBase
					{
						OFFSET -0.164730 -0.452590 2.363150
						CHANNELS 3 Zrotation Yrotation Xrotation
						End Site
						{
							OFFSET 0.000000 0.000000 0.000000
						}
					}
				}
			}
		}
	}
}
MOTION
Frames: 19
Frame Time: 0.008333
23.943970 16.214625 2.122810 53.769913 -85.956343 -39.114722 -7.516930 2.390023 7.168898 -20.375742 -10.543051 -48.615175 -3.290380 0.531530 19.026086 0.529774 4.141317 4.912616 1.717600 0.000000 -22.408599 11.071612 -5.648787 1.335180 5.029224 -9.736017 9.956816 0.618118 -1.775941 19.809481 0.402788 17.071144 27.244219 9.332001 0.000000 -79.860300
23.749485 16.250337 2.108350 54.351347 -85.445047 -39.902084 -7.405700 2.458460 7.165960 -20.683762 -10.979926 -47.773604 -3.240674 0.599886 19.805936 0.597990 4.390760 4.365158 1.711300 0.000000 -21.216300 11.337536 -5.549357 1.220857 4.282278 -10.354114 8.754011 0.341308 -1.870973 22.473969 0.181733 17.705644 29.691329 10.403400 0.000000 -77.828200
23.559781 16.286299 2.095754 54.861927 -84.950196 -40.643696 -7.301628 2.514237 7.157157 -20.999131 -11.380991 -46.826583 -3.209152 0.645891 20.458639 0.665375 4.604641 3.648735 1.674800 0.000000 -20.026000 11.591147 -5.422326 1.072833 3.524291 -11.106293 7.472681 0.096910 -1.940838 25.249937 -0.045329 18.000027 31.866807 11.220499 0.000000 -75.183801
23.374936 16.322371 2.085256 55.306376 -84.482925 -41.342381 -7.208494 2.560379 7.138534 -21.325050 -11.716478 -45.792634 -3.193842 0.673304 20.986894 0.730726 4.786869 2.824273 1.614100 0.000000 -18.860500 11.825332 -5.272809 0.896402 2.777012 -11.959982 6.127738 -0.113786 -1.995142 28.104884 -0.273154 17.797897 33.711306 11.635300 -0.000000 -72.221100
23.194831 16.358486 2.076542 55.747755 -84.045640 -42.062443 -7.124916 2.601202 7.107023 -21.670142 -11.968876 -44.677862 -3.193383 0.684753 21.384036 0.793756 4.949621 1.956204 1.538601 -0.000000 -17.758200 12.039708 -5.103817 0.695356 2.043921 -12.884990 4.738071 -0.294658 -2.043397 31.008010 -0.498906 16.991443 35.162119 11.534300 0.000000 -69.209300
23.019211 16.394609 2.069699 56.166149 -83.647815 -42.777639 -7.054968 2.638522 7.059781 -22.026168 -12.117374 -43.507553 -3.204036 0.683833 21.661236 0.852357 5.091608 1.097287 1.454100 0.000000 -16.763400 12.229160 -4.920414 0.479102 1.353039 -13.830097 3.315944 -0.450882 -2.094128 33.925191 -0.721503 15.520378 36.159528 10.852700 0.000000 -66.433200
22.848126 16.430747 2.064482 56.583074 -83.291897 -43.506492 -6.998711 2.674399 6.995182 -22.388030 -12.154417 -42.297437 -3.223084 0.673010 21.823970 0.905118 5.215541 0.290460 1.366900 -0.000001 -15.920500 12.393600 -4.725810 0.255173 0.716803 -14.751471 1.873736 -0.588900 -2.153999 36.826092 -0.939833 13.413387 36.636661 9.608800 0.000000 -64.058100
22.681103 16.466989 2.061149 56.946251 -82.988950 -44.183866 -6.962094 2.708474 6.912929 -22.733268 -12.070459 -41.084492 -3.246014 0.655523 21.897885 0.948875 5.308093 -0.442632 1.278600 -0.000000 -15.257600 12.527885 -4.527085 0.035497 0.171368 -15.596745 0.411212 -0.713639 -2.228069 39.680655 -1.151363 10.771956 36.535798 7.898200 0.000000 -62.118001
22.517650 16.503309 2.059711 57.236732 -82.744062 -44.780710 -6.947657 2.740736 6.815220 -23.043057 -11.869375 -39.896623 -3.269588 0.633566 21.904881 0.981598 5.359605 -1.094516 1.190500 0.000000 -14.786200 12.630844 -4.331053 -0.170074 -0.261660 -16.328467 -1.073772 -0.829361 -2.319370 42.462865 -1.351389 7.778391 35.817326 5.894200 0.000000 -60.533700
22.358169 16.539592 2.058424 57.686500 -82.525261 -45.545948 -6.932694 2.776323 6.701367 -23.354227 -11.595700 -38.673867 -3.298893 0.604200 21.798581 1.008353 5.408952 -1.646070 1.113000 -0.000000 -14.508200 12.724726 -4.128834 -0.371500 -0.662665 -16.958639 -2.546688 -0.941439 -2.428876 45.148265 -1.533254 4.691642 34.467965 3.833300 0.000000 -59.076300
22.201711 16.575875 2.058865 58.053175 -82.365186 -46.208025 -6.938933 2.808368 6.576906 -23.605087 -11.235967 -37.506042 -3.325377 0.572527 21.656281 1.023334 5.407618 -2.134291 1.035000 0.000000 -14.389600 12.790519 -3.938523 -0.546572 -0.937484 -17.429906 -4.041943 -1.048296 -2.555573 47.708970 -1.690257 1.702785 32.543428 1.902300 -0.000000 -57.694000
22.048401 16.612008 2.060237 58.434704 -82.247877 -46.866939 -6.955815 2.838136 6.444075 -23.808962 -10.824011 -36.368810 -3.351194 0.537126 21.464894 1.029808 5.372288 -2.569678 0.959100 0.000000 -14.399499 12.839311 -3.757746 -0.697630 -1.123385 -17.748846 -5.544952 -1.150174 -2.695813 50.121216 -1.816320 -0.988192 30.125747 0.271900 0.000001 -56.249300
21.897785 16.647803 2.062709 58.797797 -82.174948 -47.481791 -6.985025 2.863406 6.306137 -23.954777 -10.376387 -35.277303 -3.374871 0.498755 21.244075 1.028468 5.298152 -2.976843 0.882600 -0.000001 -14.497499 12.870762 -3.589783 -0.819892 -1.213087 -17.909085 -7.059949 -1.244443 -2.844453 52.364774 -1.907248 -3.260701 27.329622 -0.969100 -0.000000 -54.692400
21.749990 16.683066 2.065910 59.174115 -82.136548 -48.089079 -7.021555 2.883781 6.164774 -24.050966 -9.915500 -34.215450 -3.397249 0.456782 20.990507 1.022113 5.196960 -3.370201 0.806000 0.000000 -14.647300 12.890195 -3.432225 -0.914803 -1.230077 -17.922207 -8.575135 -1.328067 -2.995856 54.422647 -1.960655 -5.047838 24.280631 -1.796001 0.000000 -53.020900
21.604564 16.717571 2.069803 59.558521 -82.128431 -48.681188 -7.064387 2.898657 6.021613 -24.101117 -9.454484 -33.179308 -3.418182 0.411276 20.709611 1.012512 5.074157 -3.763391 0.728800 0.000000 -14.815900 12.899007 -3.284069 -0.982580 -1.185657 -17.800000 -10.084598 -1.397229 -3.144549 56.282394 -1.976104 -6.340621 21.100734 -2.243300 -0.000000 -51.279400
21.461788 16.751096 2.074444 59.926184 -82.148559 -49.235952 -7.114363 2.907202 5.877273 -24.106564 -8.997907 -32.170059 -3.436953 0.362959 20.411060 1.000827 4.932990 -4.165874 0.650600 0.000000 -14.977100 12.896748 -3.144377 -1.023636 -1.085293 -17.555461 -11.584637 -1.448535 -3.286040 57.937523 -1.955050 -7.169204 17.896289 -2.380000 -0.000000 -49.542500
21.321103 16.783442 2.079718 60.281516 -82.190902 -49.761793 -7.169610 2.910052 5.731128 -24.077060 -8.549310 -31.176126 -3.453780 0.312035 20.092948 0.988556 4.782692 -4.576666 0.572900 0.000001 -15.114500 12.885189 -3.010164 -1.041572 -0.947188 -17.208990 -13.064420 -1.479526 -3.417097 59.383820 -1.900110 -7.580855 14.750497 -2.286601 0.000000 -47.883800
21.182590 16.814385 2.085614 60.610425 -82.252556 -50.247211 -7.230241 2.907955 5.582614 -24.018900 -8.105694 -30.194990 -3.468323 0.259396 19.759725 0.976257 4.627686 -4.992082 0.496800 -0.000000 -15.220200 12.864250 -2.879725 -1.038592 -0.780935 -16.777358 -14.517800 -1.488630 -3.535449 60.620756 -1.815302 -7.636134 11.722675 -2.043000 -0.000001 -46.363200
21.046550 16.843869 2.092000 60.913343 -82.328091 -50.702572 -7.295090 2.901766 5.429458 -23.940487 -7.662029 -29.215436 -3.480598 0.205701 19.407775 0.964439 4.475355 -5.400804 0.424000 0.000000 -15.295400 12.835077 -2.750134 -1.018932 -0.602204 -16.278429 -15.932256 -1.475342 -3.639951 61.648065 -1.705574 -7.397344 8.850421 -1.718000 -0.000000 -45.013900
